<?xml version="1.0" encoding="UTF-8"?><svg xmlns="http://www.w3.org/2000/svg" xmlns:xlink="http://www.w3.org/1999/xlink" viewBox="0 0 208 340"><defs><style>.cls-1{fill:none;}.cls-2{clip-path:url(#clippath);}.cls-3{fill:#f8bcd0;}.cls-4{fill:#f9e8ef;}.cls-5{fill:#ffde05;}.cls-6{fill:#ff4081;}.cls-7{fill:#fce4ec;}.cls-8{fill:#ff8a65;}.cls-9{fill:#7e57c2;}.cls-10{fill:#4eb6ac;}.cls-11{fill:#50c3f7;}</style><clipPath id="clippath"><circle class="cls-1" cx="192.5" cy="170.5" r="140.5"/></clipPath></defs><g id="_レイヤー_2"><circle class="cls-7" cx="192.5" cy="170.5" r="140.5"/><g class="cls-2"><circle class="cls-4" cx="252.5" cy="276.5" r="122.5"/><circle class="cls-3" cx="221" cy="79" r="136"/></g></g><g id="_レイヤー_1"><circle class="cls-9" cx="81.5" cy="46.5" r="2.5"/><path class="cls-8" d="M165.65,68.78c0,.07,0,.13,0,.19,0,1,0,1.99,0,2.99,0,.5-.29,.91-.74,1.09-.45,.18-.96,.06-1.3-.29-.22-.23-.31-.51-.31-.82,0-.98,0-1.96,0-2.95,0-.06,0-.12,0-.19-.05,0-.1,0-.15,0-1,0-2.01,0-3.01,0-.51,0-.93-.3-1.1-.75-.17-.46-.05-.98,.32-1.3,.23-.21,.51-.29,.81-.29,.99,0,1.97,0,2.96,0h.17c0-.06,0-.11,0-.16,0-1,0-1.99,0-2.99,0-.49,.21-.86,.66-1.07,.42-.2,.85-.17,1.23,.12,.33,.24,.46,.58,.46,.98,0,.99,0,1.97,0,2.96,0,.05,0,.1,0,.16,.07,0,.12,0,.17,0,.98,0,1.96,0,2.95,0,.42,0,.77,.15,1.01,.49,.27,.39,.29,.81,.08,1.22-.21,.42-.57,.63-1.03,.63-.99,0-1.98,0-2.97,0-.06,0-.12,0-.2,0Z"/><path class="cls-10" d="M72.53,288.71c0,.11,0,.19,0,.28,0,1.48,0,2.96,0,4.44,0,.74-.43,1.36-1.1,1.62-.67,.26-1.43,.09-1.93-.44-.32-.34-.46-.75-.46-1.22,0-1.46,0-2.92,0-4.38,0-.09,0-.17,0-.29-.08,0-.15-.01-.22-.01-1.49,0-2.99,0-4.48,0-.75,0-1.39-.44-1.64-1.12-.26-.69-.07-1.46,.47-1.94,.35-.31,.75-.44,1.21-.44,1.47,0,2.93,0,4.4,0h.26c0-.1,0-.17,0-.24,0-1.48,0-2.96,0-4.44,0-.73,.32-1.28,.97-1.6,.63-.3,1.26-.25,1.83,.18,.48,.36,.69,.86,.69,1.46,0,1.47,0,2.93,0,4.4,0,.07,0,.14,0,.24,.1,0,.18,0,.26,0,1.46,0,2.92,0,4.38,0,.62,0,1.14,.22,1.5,.74,.4,.58,.44,1.2,.12,1.82-.31,.62-.85,.93-1.54,.94-1.47,0-2.95,0-4.42,0-.09,0-.17,0-.3,0Z"/><circle class="cls-5" cx="194" cy="265" r="4"/><path class="cls-11" d="M100.31,237.6s0,.08,0,.12c0,.62,0,1.23,0,1.85,0,.31-.18,.56-.46,.67-.28,.11-.6,.04-.8-.18-.13-.14-.19-.31-.19-.51,0-.61,0-1.21,0-1.82,0-.04,0-.07,0-.12-.03,0-.06,0-.09,0-.62,0-1.24,0-1.86,0-.31,0-.58-.18-.68-.47-.11-.29-.03-.61,.2-.81,.14-.13,.31-.18,.5-.18,.61,0,1.22,0,1.83,0h.11s0-.07,0-.1c0-.62,0-1.23,0-1.85,0-.3,.13-.53,.41-.66,.26-.13,.52-.1,.76,.07,.2,.15,.29,.36,.29,.61,0,.61,0,1.22,0,1.83,0,.03,0,.06,0,.1,.04,0,.07,0,.11,0,.61,0,1.21,0,1.82,0,.26,0,.47,.09,.62,.31,.17,.24,.18,.5,.05,.76-.13,.26-.35,.39-.64,.39-.61,0-1.23,0-1.84,0-.04,0-.07,0-.12,0Z"/><g><path class="cls-6" d="M156.97,99.67c1.54-1.24,2.97-2.41,4.43-3.56,2.36-1.86,5.03-1.74,7.18,.37,2.42,2.36,4.82,4.75,7.2,7.16,2.11,2.14,2.44,5.22,.31,7.33-2.92,2.9-3.33,5.39-1.54,9.41,1.63,3.64,3.22,5.34,7.23,5.39,3.85,.05,5.24,1.95,5.25,5.77,0,3.32,.03,6.64-.01,9.96-.03,2.86-1.5,4.58-4.34,5.05-1.64,.27-3.29,.47-4.94,.57-1.1,.07-1.55,.54-1.93,1.56-.88,2.43-2.02,4.76-2.91,7.18-.22,.6-.14,1.54,.2,2.06,.94,1.44,2.13,2.72,3.17,4.09,1.71,2.26,1.63,4.83-.32,6.85-2.49,2.58-5.02,5.12-7.6,7.61-1.98,1.91-4.46,2.01-6.69,.34-1.7-1.27-3.22-3.42-5.05-3.7-1.78-.27-3.79,1.67-5.8,2.05-3.56,.66-5.03,2.58-4.79,6.08,.05,.72-.12,1.45-.22,2.18-.34,2.52-1.9,4.25-4.41,4.36-3.98,.16-7.97,.16-11.95,.02-2.44-.08-4.14-1.95-4.4-4.38-.04-.4-.03-.8-.07-1.19-.33-3.3-.59-5.9-4.76-7.58-4.36-1.77-7.01-1.33-10.15,1.71-2.55,2.47-5.22,2.12-7.71-.36-1.27-1.26-2.54-2.53-3.81-3.79-1.08-1.08-2.18-2.14-3.23-3.25-1.95-2.03-2.1-4.8-.37-7.04,1.14-1.47,2.43-2.82,3.49-4.34,.35-.51,.45-1.45,.24-2.04-.83-2.3-1.78-4.57-2.82-6.79-.24-.5-1.01-.95-1.6-1.05-1.89-.33-3.82-.44-5.73-.72-2.72-.4-4.24-1.87-4.35-4.61-.15-3.85-.15-7.71,0-11.55,.11-2.66,1.54-4.1,4.17-4.57,1.82-.32,3.7-.37,5.51-.73,.6-.12,1.34-.73,1.59-1.3,1.04-2.36,1.98-4.77,2.82-7.21,.21-.61,.15-1.55-.19-2.07-.91-1.38-2.05-2.61-3.08-3.91-1.83-2.32-1.73-5.1,.33-7.19,2.46-2.51,4.95-5.01,7.47-7.46,2.08-2.02,4.72-2.12,7.04-.34,.79,.6,1.54,1.26,2.32,1.88,.72,.58,1.46,1.14,2.08,1.62,3.28-1.31,6.49-2.54,9.63-3.91,.5-.22,.92-1.05,1.03-1.67,.27-1.5,.3-3.04,.51-4.55,.37-2.75,2.21-4.44,4.97-4.48,3.65-.05,7.31-.04,10.96,.02,2.73,.04,4.91,1.63,4.8,4.28-.22,4.95,1.93,7.47,6.63,8.41,1.44,.29,2.74,1.29,4.22,2.01Zm-39.2,36.26c-.03,10.07,8.14,18.28,18.16,18.26,9.82-.01,18.08-8.29,18.14-18.18,.06-9.56-8.29-18.09-17.77-18.15-10.28-.06-18.51,7.95-18.54,18.07Z"/><path class="cls-6" d="M257.42,179.02c.14,3.91-1.11,5.76-4.49,6.17-2.84,.34-3.91,1.61-4.81,4.32-1.11,3.34-1.41,5.77,1.66,8.21,1.95,1.55,1.82,4.34,.25,6.31-1.57,1.97-3.22,3.89-4.89,5.77-1.81,2.03-4.47,2.54-6.59,.77-2.68-2.23-4.79-2.01-7.85-.44-2.94,1.51-4.26,2.98-3.99,6.31,.24,3.01-1.43,4.74-4.4,5.12-2.56,.33-5.15,.52-7.74,.61-2.71,.09-4.74-1.42-4.96-4.14-.28-3.49-1.76-5.11-5.24-6.08-2.83-.79-4.5-.59-6.46,1.55-2.57,2.81-4.86,2.76-7.82,.32-1.64-1.35-3.26-2.72-4.87-4.11-2.16-1.86-2.88-4.44-1.07-6.52,2.69-3.09,2.3-5.66,.29-8.87-1.08-1.73-1.9-2.79-4.01-2.45-.83,.13-1.73,.01-2.58-.1-2.33-.3-3.92-1.8-4.21-4.11-.33-2.7-.59-5.41-.73-8.13-.12-2.39,1.43-4.56,3.88-4.81,3.46-.35,4.99-1.82,5.9-5.34,.77-2.97,.66-4.77-1.62-6.82-2.46-2.2-2.39-4.67-.32-7.23,1.42-1.75,2.87-3.49,4.35-5.19,2.01-2.3,4.53-2.82,6.86-.93,2.41,1.95,4.16,1.73,6.88,.29,3.18-1.69,5.34-3.13,5-7.19-.19-2.29,1.55-3.69,3.91-4.02,2.56-.36,5.14-.66,7.71-.8,3.1-.17,5,1.1,5.31,4.13,.33,3.25,1.96,4.31,4.9,5.2,3.07,.93,5.34,1.46,7.68-1.45,1.5-1.87,4.58-1.59,6.54,0,1.85,1.51,3.67,3.07,5.47,4.63,2.01,1.74,2.64,4.56,.94,6.6-2.15,2.59-1.94,4.62-.37,7.52,1.45,2.7,2.69,4.19,5.98,3.87,2.82-.27,4.53,1.56,4.89,4.41,.3,2.37,.45,4.75,.62,6.6Zm-42.22,15.27c8.23,.07,14.87-6.38,15-14.57,.13-7.99-6.5-14.85-14.46-14.97-8.29-.13-15.1,6.41-15.23,14.62-.12,8.09,6.53,14.85,14.68,14.93Z"/><path class="cls-6" d="M138.37,246.19c-.77,.59-1.54,1.21-2.34,1.8-2.41,1.78-4.89,1.62-7-.46-.95-.93-1.89-1.86-2.79-2.83-2.1-2.26-2.31-4.89-.2-7.12,1.49-1.58,1.96-2.95,.68-4.8-.4-.58-.41-1.44-.83-2.01-.44-.59-1.09-1.1-1.76-1.39-.64-.29-1.43-.24-2.15-.37-2.42-.41-3.86-1.96-4.04-4.44-.09-1.25-.05-2.52,0-3.78,.14-4.13,1.19-5.49,5.25-6.05,1.79-.25,2.74-.93,3.01-2.66,.01-.06,.03-.13,.07-.19,1.45-2.31,1.76-4.34-.38-6.66-1.56-1.69-.95-4.19,.76-5.92,1.03-1.04,2.07-2.06,3.13-3.06,2.17-2.04,4.56-2.3,6.77-.34,1.55,1.37,2.84,1.65,4.47,.4,.2-.16,.48-.25,.73-.3,2.47-.56,4.03-1.51,4.32-4.58,.3-3.23,2.93-4,9.3-3.59,2.7,.17,4.31,1.7,4.73,4.49,.07,.46-.04,.99,.16,1.37,.29,.57,.66,1.25,1.19,1.52,1.52,.8,3.11,1.5,4.73,2.05,.53,.18,1.38,0,1.85-.35,3.46-2.52,5.52-2.39,8.5,.66,.42,.43,.79,.9,1.21,1.32,3.14,3.16,3.28,5.09,.41,8.57-.72,.88-.77,1.51-.23,2.44,.49,.85,.98,1.79,1.12,2.75,.3,1.99,1.54,2.44,3.28,2.6,2.79,.26,4.32,1.84,4.5,4.65,.11,1.78,.06,3.59-.13,5.37-.28,2.6-1.87,4.04-4.9,4.27-1.68,.13-2.78,.58-2.99,2.37-.02,.13-.08,.26-.15,.37-1.54,2.4-1.95,4.55,.32,6.98,1.43,1.53,.87,3.98-.67,5.64-1.17,1.26-2.41,2.47-3.72,3.6-1.82,1.58-4.25,1.67-6.17-.06-1.71-1.54-3.07-1.49-5.24-.74-2.79,.97-4.19,2.2-4.35,5.26-.11,2.12-2.2,3.45-4.44,3.49-1.26,.03-2.52,0-3.78,0-3.94-.03-5.54-1.26-5.87-5.15-.17-1.95-.77-2.96-2.67-3.45-1.26-.32-2.41-1.08-3.68-1.68Zm2.19-24.46c-.05,6.68,5.24,12.14,11.83,12.21,6.65,.07,12.11-5.24,12.19-11.85,.09-6.71-5.3-12.17-12.04-12.21-6.48-.03-11.93,5.36-11.98,11.85Z"/></g></g></svg>